solid OpenSCAD_Model
  facet normal 0 0 1
    outer loop
      vertex 95 40 2.5
      vertex 100 35 2.5
      vertex 99.9039 35.9755 2.5
    endloop
  endfacet
  facet normal 0 0 1
    outer loop
      vertex 100 35 2.5
      vertex 95 40 2.5
      vertex 100 -35 2.5
    endloop
  endfacet
  facet normal 0 0 1
    outer loop
      vertex 95 40 2.5
      vertex 99.9039 35.9755 2.5
      vertex 99.6194 36.9134 2.5
    endloop
  endfacet
  facet normal 0 0 1
    outer loop
      vertex 95 -40 2.5
      vertex 100 -35 2.5
      vertex 95 40 2.5
    endloop
  endfacet
  facet normal 0 0 1
    outer loop
      vertex 95 40 2.5
      vertex 99.6194 36.9134 2.5
      vertex 99.1573 37.7779 2.5
    endloop
  endfacet
  facet normal 0 0 1
    outer loop
      vertex 100 -35 2.5
      vertex 95 -40 2.5
      vertex 99.9039 -35.9755 2.5
    endloop
  endfacet
  facet normal 0 0 1
    outer loop
      vertex 95 40 2.5
      vertex 99.1573 37.7779 2.5
      vertex 98.5355 38.5355 2.5
    endloop
  endfacet
  facet normal 0 0 1
    outer loop
      vertex 99.9039 -35.9755 2.5
      vertex 95 -40 2.5
      vertex 99.6194 -36.9134 2.5
    endloop
  endfacet
  facet normal 0 0 1
    outer loop
      vertex 95 40 2.5
      vertex 98.5355 38.5355 2.5
      vertex 97.7778 39.1573 2.5
    endloop
  endfacet
  facet normal 0 0 1
    outer loop
      vertex 99.6194 -36.9134 2.5
      vertex 95 -40 2.5
      vertex 99.1573 -37.7779 2.5
    endloop
  endfacet
  facet normal 0 0 1
    outer loop
      vertex 95 40 2.5
      vertex 97.7778 39.1573 2.5
      vertex 96.9134 39.6194 2.5
    endloop
  endfacet
  facet normal 0 0 1
    outer loop
      vertex 99.1573 -37.7779 2.5
      vertex 95 -40 2.5
      vertex 98.5355 -38.5355 2.5
    endloop
  endfacet
  facet normal 0 0 1
    outer loop
      vertex 95 40 2.5
      vertex 96.9134 39.6194 2.5
      vertex 95.9754 39.9039 2.5
    endloop
  endfacet
  facet normal 0 0 1
    outer loop
      vertex 98.5355 -38.5355 2.5
      vertex 95 -40 2.5
      vertex 97.7778 -39.1573 2.5
    endloop
  endfacet
  facet normal 0 0 1
    outer loop
      vertex 97.7778 -39.1573 2.5
      vertex 95 -40 2.5
      vertex 96.9134 -39.6194 2.5
    endloop
  endfacet
  facet normal 0 0 1
    outer loop
      vertex 96.9134 -39.6194 2.5
      vertex 95 -40 2.5
      vertex 95.9754 -39.9039 2.5
    endloop
  endfacet
  facet normal -0 0 1
    outer loop
      vertex -95 40 2.5
      vertex 95 -40 2.5
      vertex 95 40 2.5
    endloop
  endfacet
  facet normal 0 0 1
    outer loop
      vertex -95 40 2.5
      vertex -95 -40 2.5
      vertex 95 -40 2.5
    endloop
  endfacet
  facet normal 0 0 1
    outer loop
      vertex -100 35 2.5
      vertex -95 40 2.5
      vertex -95.9754 39.9039 2.5
    endloop
  endfacet
  facet normal 0 0 1
    outer loop
      vertex -95 40 2.5
      vertex -100 35 2.5
      vertex -95 -40 2.5
    endloop
  endfacet
  facet normal 0 0 1
    outer loop
      vertex -100 35 2.5
      vertex -95.9754 39.9039 2.5
      vertex -96.9134 39.6194 2.5
    endloop
  endfacet
  facet normal -0 0 1
    outer loop
      vertex -100 -35 2.5
      vertex -95 -40 2.5
      vertex -100 35 2.5
    endloop
  endfacet
  facet normal 0 0 1
    outer loop
      vertex -100 35 2.5
      vertex -96.9134 39.6194 2.5
      vertex -97.7778 39.1573 2.5
    endloop
  endfacet
  facet normal 0 0 1
    outer loop
      vertex -95 -40 2.5
      vertex -100 -35 2.5
      vertex -95.9754 -39.9039 2.5
    endloop
  endfacet
  facet normal 0 0 1
    outer loop
      vertex -100 35 2.5
      vertex -97.7778 39.1573 2.5
      vertex -98.5355 38.5355 2.5
    endloop
  endfacet
  facet normal 0 0 1
    outer loop
      vertex -95.9754 -39.9039 2.5
      vertex -100 -35 2.5
      vertex -96.9134 -39.6194 2.5
    endloop
  endfacet
  facet normal 0 0 1
    outer loop
      vertex -100 35 2.5
      vertex -98.5355 38.5355 2.5
      vertex -99.1573 37.7779 2.5
    endloop
  endfacet
  facet normal 0 0 1
    outer loop
      vertex -96.9134 -39.6194 2.5
      vertex -100 -35 2.5
      vertex -97.7778 -39.1573 2.5
    endloop
  endfacet
  facet normal 0 0 1
    outer loop
      vertex -100 35 2.5
      vertex -99.1573 37.7779 2.5
      vertex -99.6194 36.9134 2.5
    endloop
  endfacet
  facet normal 0 0 1
    outer loop
      vertex -97.7778 -39.1573 2.5
      vertex -100 -35 2.5
      vertex -98.5355 -38.5355 2.5
    endloop
  endfacet
  facet normal 0 0 1
    outer loop
      vertex -100 35 2.5
      vertex -99.6194 36.9134 2.5
      vertex -99.9039 35.9755 2.5
    endloop
  endfacet
  facet normal 0 0 1
    outer loop
      vertex -98.5355 -38.5355 2.5
      vertex -100 -35 2.5
      vertex -99.1573 -37.7779 2.5
    endloop
  endfacet
  facet normal 0 0 1
    outer loop
      vertex -99.1573 -37.7779 2.5
      vertex -100 -35 2.5
      vertex -99.6194 -36.9134 2.5
    endloop
  endfacet
  facet normal 0 0 1
    outer loop
      vertex -99.6194 -36.9134 2.5
      vertex -100 -35 2.5
      vertex -99.9039 -35.9755 2.5
    endloop
  endfacet
  facet normal 0 0 -1
    outer loop
      vertex 95 -40 -2.5
      vertex 100 -35 -2.5
      vertex 99.9039 -35.9755 -2.5
    endloop
  endfacet
  facet normal -0 0 -1
    outer loop
      vertex 100 -35 -2.5
      vertex 95 -40 -2.5
      vertex 100 35 -2.5
    endloop
  endfacet
  facet normal 0 0 -1
    outer loop
      vertex 95 -40 -2.5
      vertex 99.9039 -35.9755 -2.5
      vertex 99.6194 -36.9134 -2.5
    endloop
  endfacet
  facet normal 0 0 -1
    outer loop
      vertex 95 40 -2.5
      vertex 100 35 -2.5
      vertex 95 -40 -2.5
    endloop
  endfacet
  facet normal 0 0 -1
    outer loop
      vertex 95 -40 -2.5
      vertex 99.6194 -36.9134 -2.5
      vertex 99.1573 -37.7779 -2.5
    endloop
  endfacet
  facet normal 0 0 -1
    outer loop
      vertex 100 35 -2.5
      vertex 95 40 -2.5
      vertex 99.9039 35.9755 -2.5
    endloop
  endfacet
  facet normal 0 0 -1
    outer loop
      vertex 95 -40 -2.5
      vertex 99.1573 -37.7779 -2.5
      vertex 98.5355 -38.5355 -2.5
    endloop
  endfacet
  facet normal 0 0 -1
    outer loop
      vertex 99.9039 35.9755 -2.5
      vertex 95 40 -2.5
      vertex 99.6194 36.9134 -2.5
    endloop
  endfacet
  facet normal 0 0 -1
    outer loop
      vertex 95 -40 -2.5
      vertex 98.5355 -38.5355 -2.5
      vertex 97.7778 -39.1573 -2.5
    endloop
  endfacet
  facet normal 0 0 -1
    outer loop
      vertex 99.6194 36.9134 -2.5
      vertex 95 40 -2.5
      vertex 99.1573 37.7779 -2.5
    endloop
  endfacet
  facet normal 0 0 -1
    outer loop
      vertex 95 -40 -2.5
      vertex 97.7778 -39.1573 -2.5
      vertex 96.9134 -39.6194 -2.5
    endloop
  endfacet
  facet normal 0 0 -1
    outer loop
      vertex 99.1573 37.7779 -2.5
      vertex 95 40 -2.5
      vertex 98.5355 38.5355 -2.5
    endloop
  endfacet
  facet normal 0 0 -1
    outer loop
      vertex 95 -40 -2.5
      vertex 96.9134 -39.6194 -2.5
      vertex 95.9754 -39.9039 -2.5
    endloop
  endfacet
  facet normal 0 0 -1
    outer loop
      vertex 98.5355 38.5355 -2.5
      vertex 95 40 -2.5
      vertex 97.7778 39.1573 -2.5
    endloop
  endfacet
  facet normal 0 0 -1
    outer loop
      vertex 97.7778 39.1573 -2.5
      vertex 95 40 -2.5
      vertex 96.9134 39.6194 -2.5
    endloop
  endfacet
  facet normal 0 0 -1
    outer loop
      vertex 96.9134 39.6194 -2.5
      vertex 95 40 -2.5
      vertex 95.9754 39.9039 -2.5
    endloop
  endfacet
  facet normal 0 0 -1
    outer loop
      vertex -95 -40 -2.5
      vertex 95 40 -2.5
      vertex 95 -40 -2.5
    endloop
  endfacet
  facet normal 0 0 -1
    outer loop
      vertex -95 -40 -2.5
      vertex -95 40 -2.5
      vertex 95 40 -2.5
    endloop
  endfacet
  facet normal 0 0 -1
    outer loop
      vertex -100 -35 -2.5
      vertex -95 -40 -2.5
      vertex -95.9754 -39.9039 -2.5
    endloop
  endfacet
  facet normal 0 0 -1
    outer loop
      vertex -95 -40 -2.5
      vertex -100 -35 -2.5
      vertex -95 40 -2.5
    endloop
  endfacet
  facet normal 0 0 -1
    outer loop
      vertex -100 -35 -2.5
      vertex -95.9754 -39.9039 -2.5
      vertex -96.9134 -39.6194 -2.5
    endloop
  endfacet
  facet normal 0 0 -1
    outer loop
      vertex -100 35 -2.5
      vertex -95 40 -2.5
      vertex -100 -35 -2.5
    endloop
  endfacet
  facet normal 0 0 -1
    outer loop
      vertex -100 -35 -2.5
      vertex -96.9134 -39.6194 -2.5
      vertex -97.7778 -39.1573 -2.5
    endloop
  endfacet
  facet normal 0 0 -1
    outer loop
      vertex -95 40 -2.5
      vertex -100 35 -2.5
      vertex -95.9754 39.9039 -2.5
    endloop
  endfacet
  facet normal 0 0 -1
    outer loop
      vertex -100 -35 -2.5
      vertex -97.7778 -39.1573 -2.5
      vertex -98.5355 -38.5355 -2.5
    endloop
  endfacet
  facet normal 0 0 -1
    outer loop
      vertex -95.9754 39.9039 -2.5
      vertex -100 35 -2.5
      vertex -96.9134 39.6194 -2.5
    endloop
  endfacet
  facet normal 0 0 -1
    outer loop
      vertex -100 -35 -2.5
      vertex -98.5355 -38.5355 -2.5
      vertex -99.1573 -37.7779 -2.5
    endloop
  endfacet
  facet normal 0 0 -1
    outer loop
      vertex -96.9134 39.6194 -2.5
      vertex -100 35 -2.5
      vertex -97.7778 39.1573 -2.5
    endloop
  endfacet
  facet normal 0 0 -1
    outer loop
      vertex -100 -35 -2.5
      vertex -99.1573 -37.7779 -2.5
      vertex -99.6194 -36.9134 -2.5
    endloop
  endfacet
  facet normal 0 0 -1
    outer loop
      vertex -97.7778 39.1573 -2.5
      vertex -100 35 -2.5
      vertex -98.5355 38.5355 -2.5
    endloop
  endfacet
  facet normal 0 0 -1
    outer loop
      vertex -100 -35 -2.5
      vertex -99.6194 -36.9134 -2.5
      vertex -99.9039 -35.9755 -2.5
    endloop
  endfacet
  facet normal 0 0 -1
    outer loop
      vertex -98.5355 38.5355 -2.5
      vertex -100 35 -2.5
      vertex -99.1573 37.7779 -2.5
    endloop
  endfacet
  facet normal 0 0 -1
    outer loop
      vertex -99.1573 37.7779 -2.5
      vertex -100 35 -2.5
      vertex -99.6194 36.9134 -2.5
    endloop
  endfacet
  facet normal 0 0 -1
    outer loop
      vertex -99.6194 36.9134 -2.5
      vertex -100 35 -2.5
      vertex -99.9039 35.9755 -2.5
    endloop
  endfacet
  facet normal 0 -1 0
    outer loop
      vertex -95 -40 -2.5
      vertex 95 -40 2.5
      vertex -95 -40 2.5
    endloop
  endfacet
  facet normal 0 -1 -0
    outer loop
      vertex 95 -40 2.5
      vertex -95 -40 -2.5
      vertex 95 -40 -2.5
    endloop
  endfacet
  facet normal 0 1 -0
    outer loop
      vertex 95 40 -2.5
      vertex -95 40 2.5
      vertex 95 40 2.5
    endloop
  endfacet
  facet normal 0 1 0
    outer loop
      vertex -95 40 2.5
      vertex 95 40 -2.5
      vertex -95 40 -2.5
    endloop
  endfacet
  facet normal -1 0 0
    outer loop
      vertex -100 -35 -2.5
      vertex -100 35 2.5
      vertex -100 35 -2.5
    endloop
  endfacet
  facet normal -1 -0 0
    outer loop
      vertex -100 35 2.5
      vertex -100 -35 -2.5
      vertex -100 -35 2.5
    endloop
  endfacet
  facet normal 1 -0 0
    outer loop
      vertex 100 -35 2.5
      vertex 100 35 -2.5
      vertex 100 35 2.5
    endloop
  endfacet
  facet normal 1 0 0
    outer loop
      vertex 100 35 -2.5
      vertex 100 -35 2.5
      vertex 100 -35 -2.5
    endloop
  endfacet
  facet normal 0.995184 0.0980205 0
    outer loop
      vertex 100 35 2.5
      vertex 99.9039 35.9755 -2.5
      vertex 99.9039 35.9755 2.5
    endloop
  endfacet
  facet normal 0.995184 0.0980205 0
    outer loop
      vertex 99.9039 35.9755 -2.5
      vertex 100 35 2.5
      vertex 100 35 -2.5
    endloop
  endfacet
  facet normal 0.63439 0.773013 -0
    outer loop
      vertex 98.5355 38.5355 -2.5
      vertex 97.7778 39.1573 2.5
      vertex 98.5355 38.5355 2.5
    endloop
  endfacet
  facet normal 0.63439 0.773013 0
    outer loop
      vertex 97.7778 39.1573 2.5
      vertex 98.5355 38.5355 -2.5
      vertex 97.7778 39.1573 -2.5
    endloop
  endfacet
  facet normal 0.88192 0.471398 0
    outer loop
      vertex 99.6194 36.9134 2.5
      vertex 99.1573 37.7779 -2.5
      vertex 99.1573 37.7779 2.5
    endloop
  endfacet
  facet normal 0.88192 0.471398 0
    outer loop
      vertex 99.1573 37.7779 -2.5
      vertex 99.6194 36.9134 2.5
      vertex 99.6194 36.9134 -2.5
    endloop
  endfacet
  facet normal 0.956942 0.290279 0
    outer loop
      vertex 99.9039 35.9755 2.5
      vertex 99.6194 36.9134 -2.5
      vertex 99.6194 36.9134 2.5
    endloop
  endfacet
  facet normal 0.956942 0.290279 0
    outer loop
      vertex 99.6194 36.9134 -2.5
      vertex 99.9039 35.9755 2.5
      vertex 99.9039 35.9755 -2.5
    endloop
  endfacet
  facet normal 0.773012 0.634391 0
    outer loop
      vertex 99.1573 37.7779 2.5
      vertex 98.5355 38.5355 -2.5
      vertex 98.5355 38.5355 2.5
    endloop
  endfacet
  facet normal 0.773012 0.634391 0
    outer loop
      vertex 98.5355 38.5355 -2.5
      vertex 99.1573 37.7779 2.5
      vertex 99.1573 37.7779 -2.5
    endloop
  endfacet
  facet normal 0.290286 0.95694 -0
    outer loop
      vertex 96.9134 39.6194 -2.5
      vertex 95.9754 39.9039 2.5
      vertex 96.9134 39.6194 2.5
    endloop
  endfacet
  facet normal 0.290286 0.95694 0
    outer loop
      vertex 95.9754 39.9039 2.5
      vertex 96.9134 39.6194 -2.5
      vertex 95.9754 39.9039 -2.5
    endloop
  endfacet
  facet normal 0.098017 0.995185 -0
    outer loop
      vertex 95.9754 39.9039 -2.5
      vertex 95 40 2.5
      vertex 95.9754 39.9039 2.5
    endloop
  endfacet
  facet normal 0.098017 0.995185 0
    outer loop
      vertex 95 40 2.5
      vertex 95.9754 39.9039 -2.5
      vertex 95 40 -2.5
    endloop
  endfacet
  facet normal 0.471395 0.881922 -0
    outer loop
      vertex 97.7778 39.1573 -2.5
      vertex 96.9134 39.6194 2.5
      vertex 97.7778 39.1573 2.5
    endloop
  endfacet
  facet normal 0.471395 0.881922 0
    outer loop
      vertex 96.9134 39.6194 2.5
      vertex 97.7778 39.1573 -2.5
      vertex 96.9134 39.6194 -2.5
    endloop
  endfacet
  facet normal -0.290286 -0.95694 0
    outer loop
      vertex -96.9134 -39.6194 -2.5
      vertex -95.9754 -39.9039 2.5
      vertex -96.9134 -39.6194 2.5
    endloop
  endfacet
  facet normal -0.290286 -0.95694 -0
    outer loop
      vertex -95.9754 -39.9039 2.5
      vertex -96.9134 -39.6194 -2.5
      vertex -95.9754 -39.9039 -2.5
    endloop
  endfacet
  facet normal -0.098017 -0.995185 0
    outer loop
      vertex -95.9754 -39.9039 -2.5
      vertex -95 -40 2.5
      vertex -95.9754 -39.9039 2.5
    endloop
  endfacet
  facet normal -0.098017 -0.995185 -0
    outer loop
      vertex -95 -40 2.5
      vertex -95.9754 -39.9039 -2.5
      vertex -95 -40 -2.5
    endloop
  endfacet
  facet normal -0.63439 -0.773013 0
    outer loop
      vertex -98.5355 -38.5355 -2.5
      vertex -97.7778 -39.1573 2.5
      vertex -98.5355 -38.5355 2.5
    endloop
  endfacet
  facet normal -0.63439 -0.773013 -0
    outer loop
      vertex -97.7778 -39.1573 2.5
      vertex -98.5355 -38.5355 -2.5
      vertex -97.7778 -39.1573 -2.5
    endloop
  endfacet
  facet normal -0.88192 -0.471398 0
    outer loop
      vertex -99.1573 -37.7779 -2.5
      vertex -99.6194 -36.9134 2.5
      vertex -99.6194 -36.9134 -2.5
    endloop
  endfacet
  facet normal -0.88192 -0.471398 0
    outer loop
      vertex -99.6194 -36.9134 2.5
      vertex -99.1573 -37.7779 -2.5
      vertex -99.1573 -37.7779 2.5
    endloop
  endfacet
  facet normal -0.995184 -0.0980205 0
    outer loop
      vertex -99.9039 -35.9755 -2.5
      vertex -100 -35 2.5
      vertex -100 -35 -2.5
    endloop
  endfacet
  facet normal -0.995184 -0.0980205 0
    outer loop
      vertex -100 -35 2.5
      vertex -99.9039 -35.9755 -2.5
      vertex -99.9039 -35.9755 2.5
    endloop
  endfacet
  facet normal -0.471395 -0.881922 0
    outer loop
      vertex -97.7778 -39.1573 -2.5
      vertex -96.9134 -39.6194 2.5
      vertex -97.7778 -39.1573 2.5
    endloop
  endfacet
  facet normal -0.471395 -0.881922 -0
    outer loop
      vertex -96.9134 -39.6194 2.5
      vertex -97.7778 -39.1573 -2.5
      vertex -96.9134 -39.6194 -2.5
    endloop
  endfacet
  facet normal -0.956942 -0.290279 0
    outer loop
      vertex -99.6194 -36.9134 -2.5
      vertex -99.9039 -35.9755 2.5
      vertex -99.9039 -35.9755 -2.5
    endloop
  endfacet
  facet normal -0.956942 -0.290279 0
    outer loop
      vertex -99.9039 -35.9755 2.5
      vertex -99.6194 -36.9134 -2.5
      vertex -99.6194 -36.9134 2.5
    endloop
  endfacet
  facet normal -0.773012 -0.634391 0
    outer loop
      vertex -98.5355 -38.5355 -2.5
      vertex -99.1573 -37.7779 2.5
      vertex -99.1573 -37.7779 -2.5
    endloop
  endfacet
  facet normal -0.773012 -0.634391 0
    outer loop
      vertex -99.1573 -37.7779 2.5
      vertex -98.5355 -38.5355 -2.5
      vertex -98.5355 -38.5355 2.5
    endloop
  endfacet
  facet normal 0.098017 -0.995185 0
    outer loop
      vertex 95 -40 -2.5
      vertex 95.9754 -39.9039 2.5
      vertex 95 -40 2.5
    endloop
  endfacet
  facet normal 0.098017 -0.995185 0
    outer loop
      vertex 95.9754 -39.9039 2.5
      vertex 95 -40 -2.5
      vertex 95.9754 -39.9039 -2.5
    endloop
  endfacet
  facet normal 0.956942 -0.290279 0
    outer loop
      vertex 99.6194 -36.9134 2.5
      vertex 99.9039 -35.9755 -2.5
      vertex 99.9039 -35.9755 2.5
    endloop
  endfacet
  facet normal 0.956942 -0.290279 0
    outer loop
      vertex 99.9039 -35.9755 -2.5
      vertex 99.6194 -36.9134 2.5
      vertex 99.6194 -36.9134 -2.5
    endloop
  endfacet
  facet normal 0.995184 -0.0980205 0
    outer loop
      vertex 99.9039 -35.9755 2.5
      vertex 100 -35 -2.5
      vertex 100 -35 2.5
    endloop
  endfacet
  facet normal 0.995184 -0.0980205 0
    outer loop
      vertex 100 -35 -2.5
      vertex 99.9039 -35.9755 2.5
      vertex 99.9039 -35.9755 -2.5
    endloop
  endfacet
  facet normal 0.290286 -0.95694 0
    outer loop
      vertex 95.9754 -39.9039 -2.5
      vertex 96.9134 -39.6194 2.5
      vertex 95.9754 -39.9039 2.5
    endloop
  endfacet
  facet normal 0.290286 -0.95694 0
    outer loop
      vertex 96.9134 -39.6194 2.5
      vertex 95.9754 -39.9039 -2.5
      vertex 96.9134 -39.6194 -2.5
    endloop
  endfacet
  facet normal 0.88192 -0.471398 0
    outer loop
      vertex 99.1573 -37.7779 2.5
      vertex 99.6194 -36.9134 -2.5
      vertex 99.6194 -36.9134 2.5
    endloop
  endfacet
  facet normal 0.88192 -0.471398 0
    outer loop
      vertex 99.6194 -36.9134 -2.5
      vertex 99.1573 -37.7779 2.5
      vertex 99.1573 -37.7779 -2.5
    endloop
  endfacet
  facet normal 0.63439 -0.773013 0
    outer loop
      vertex 97.7778 -39.1573 -2.5
      vertex 98.5355 -38.5355 2.5
      vertex 97.7778 -39.1573 2.5
    endloop
  endfacet
  facet normal 0.63439 -0.773013 0
    outer loop
      vertex 98.5355 -38.5355 2.5
      vertex 97.7778 -39.1573 -2.5
      vertex 98.5355 -38.5355 -2.5
    endloop
  endfacet
  facet normal 0.471395 -0.881922 0
    outer loop
      vertex 96.9134 -39.6194 -2.5
      vertex 97.7778 -39.1573 2.5
      vertex 96.9134 -39.6194 2.5
    endloop
  endfacet
  facet normal 0.471395 -0.881922 0
    outer loop
      vertex 97.7778 -39.1573 2.5
      vertex 96.9134 -39.6194 -2.5
      vertex 97.7778 -39.1573 -2.5
    endloop
  endfacet
  facet normal 0.773012 -0.634391 0
    outer loop
      vertex 98.5355 -38.5355 2.5
      vertex 99.1573 -37.7779 -2.5
      vertex 99.1573 -37.7779 2.5
    endloop
  endfacet
  facet normal 0.773012 -0.634391 0
    outer loop
      vertex 99.1573 -37.7779 -2.5
      vertex 98.5355 -38.5355 2.5
      vertex 98.5355 -38.5355 -2.5
    endloop
  endfacet
  facet normal -0.995184 0.0980205 0
    outer loop
      vertex -100 35 -2.5
      vertex -99.9039 35.9755 2.5
      vertex -99.9039 35.9755 -2.5
    endloop
  endfacet
  facet normal -0.995184 0.0980205 0
    outer loop
      vertex -99.9039 35.9755 2.5
      vertex -100 35 -2.5
      vertex -100 35 2.5
    endloop
  endfacet
  facet normal -0.63439 0.773013 0
    outer loop
      vertex -97.7778 39.1573 -2.5
      vertex -98.5355 38.5355 2.5
      vertex -97.7778 39.1573 2.5
    endloop
  endfacet
  facet normal -0.63439 0.773013 0
    outer loop
      vertex -98.5355 38.5355 2.5
      vertex -97.7778 39.1573 -2.5
      vertex -98.5355 38.5355 -2.5
    endloop
  endfacet
  facet normal -0.290286 0.95694 0
    outer loop
      vertex -95.9754 39.9039 -2.5
      vertex -96.9134 39.6194 2.5
      vertex -95.9754 39.9039 2.5
    endloop
  endfacet
  facet normal -0.290286 0.95694 0
    outer loop
      vertex -96.9134 39.6194 2.5
      vertex -95.9754 39.9039 -2.5
      vertex -96.9134 39.6194 -2.5
    endloop
  endfacet
  facet normal -0.88192 0.471398 0
    outer loop
      vertex -99.6194 36.9134 -2.5
      vertex -99.1573 37.7779 2.5
      vertex -99.1573 37.7779 -2.5
    endloop
  endfacet
  facet normal -0.88192 0.471398 0
    outer loop
      vertex -99.1573 37.7779 2.5
      vertex -99.6194 36.9134 -2.5
      vertex -99.6194 36.9134 2.5
    endloop
  endfacet
  facet normal -0.773012 0.634391 0
    outer loop
      vertex -99.1573 37.7779 -2.5
      vertex -98.5355 38.5355 2.5
      vertex -98.5355 38.5355 -2.5
    endloop
  endfacet
  facet normal -0.773012 0.634391 0
    outer loop
      vertex -98.5355 38.5355 2.5
      vertex -99.1573 37.7779 -2.5
      vertex -99.1573 37.7779 2.5
    endloop
  endfacet
  facet normal -0.956942 0.290279 0
    outer loop
      vertex -99.9039 35.9755 -2.5
      vertex -99.6194 36.9134 2.5
      vertex -99.6194 36.9134 -2.5
    endloop
  endfacet
  facet normal -0.956942 0.290279 0
    outer loop
      vertex -99.6194 36.9134 2.5
      vertex -99.9039 35.9755 -2.5
      vertex -99.9039 35.9755 2.5
    endloop
  endfacet
  facet normal -0.471395 0.881922 0
    outer loop
      vertex -96.9134 39.6194 -2.5
      vertex -97.7778 39.1573 2.5
      vertex -96.9134 39.6194 2.5
    endloop
  endfacet
  facet normal -0.471395 0.881922 0
    outer loop
      vertex -97.7778 39.1573 2.5
      vertex -96.9134 39.6194 -2.5
      vertex -97.7778 39.1573 -2.5
    endloop
  endfacet
  facet normal -0.098017 0.995185 0
    outer loop
      vertex -95 40 -2.5
      vertex -95.9754 39.9039 2.5
      vertex -95 40 2.5
    endloop
  endfacet
  facet normal -0.098017 0.995185 0
    outer loop
      vertex -95.9754 39.9039 2.5
      vertex -95 40 -2.5
      vertex -95.9754 39.9039 -2.5
    endloop
  endfacet
endsolid OpenSCAD_Model
